<svg width="432" height="160" viewBox="0 0 432 160" fill="none" xmlns="http://www.w3.org/2000/svg">
<rect width="432" height="160" fill="white"/>
<g clip-path="url(#clip0_115_252)">
<path fill-rule="evenodd" clip-rule="evenodd" d="M182.888 57.0245C196.222 56.4165 207.162 67.2252 206.938 80.534C206.759 92.784 196.938 102.85 184.745 103.255C182.754 103.3 180.852 103.12 179.018 102.714C178.503 102.602 178.078 102.196 177.966 101.656L173.38 81.3219C173.246 80.9391 173.716 80.7139 173.939 81.0294L179.421 89.5189C179.845 90.149 180.718 90.239 181.232 89.6762L181.389 89.5189C182.485 88.3027 183.917 87.447 185.483 87.0191C189.197 85.9832 196.244 83.9339 198.638 82.2227C201.815 79.9031 202.151 76.4355 202.106 74.7691C202.083 74.2737 201.658 73.8683 201.144 73.8909L189.197 74.4088C187.676 74.4762 186.154 74.116 184.79 73.3955L182.15 71.9542C180.584 71.1211 178.772 70.7609 177.004 71.0086L171.881 71.6842C168.749 72.1119 166.109 74.1837 164.991 77.1337C164.118 79.4529 163.156 82.2904 162.462 85.1501C162.328 85.6003 161.657 85.6003 161.545 85.1275C161.12 83.146 160.919 81.0516 161.03 78.8676C161.679 66.9552 171.053 57.565 182.888 57.0245ZM182.872 78.9036C181.864 79.0661 180.916 78.3351 180.795 77.2996C180.653 76.2844 181.38 75.3504 182.388 75.2082C183.397 75.0663 184.325 75.7971 184.466 76.8125C184.607 77.8274 183.881 78.7614 182.872 78.9036ZM218.919 71.2229C219.209 71.1104 219.522 71.3127 219.522 71.6274V74.3913H221.821C222.067 74.3913 222.268 74.5934 222.268 74.8406V76.9081C222.268 77.1553 222.067 77.3574 221.821 77.3574H219.522V82.8405C219.522 83.3799 219.946 83.8065 220.482 83.8065H221.821C222.067 83.8065 222.268 84.0089 222.268 84.2561V86.2111C222.268 86.4585 222.067 86.6606 221.821 86.6606H219.611C217.847 86.6606 216.418 85.2224 216.418 83.4471V77.3798H214.744C214.499 77.3798 214.298 77.1777 214.298 76.9305V74.8633C214.298 74.6158 214.499 74.4137 214.744 74.4137H216.419V72.5035C216.419 72.3014 216.53 72.1441 216.709 72.0769L218.919 71.2229ZM233.028 81.3574V74.8632C233.028 74.616 233.229 74.4139 233.475 74.4139H235.685C235.931 74.4139 236.132 74.616 236.132 74.8632V86.2109C236.132 86.4584 235.931 86.6605 235.685 86.6605H233.475C233.229 86.6605 233.028 86.4584 233.028 86.2109V85.0652C232.47 86.1662 231.421 86.9975 229.479 86.9975C226.979 86.9975 224.79 85.402 224.79 82.0314V74.8408C224.79 74.5936 224.992 74.3912 225.237 74.3912H227.447C227.693 74.3912 227.894 74.5936 227.894 74.8408V82.0314C227.894 82.8855 228.787 84.1213 230.35 84.1213C231.89 84.1213 233.028 82.9977 233.028 81.3574ZM254.639 86.6606C254.394 86.6606 254.193 86.4585 254.193 86.211V74.8633C254.193 74.6161 254.394 74.4137 254.639 74.4137H256.849C257.095 74.4137 257.296 74.6161 257.296 74.8633V86.211C257.296 86.4585 257.095 86.6606 256.849 86.6606H254.639ZM246.022 74.0992C249.348 74.0992 252.027 76.9978 252.027 80.5708C252.027 84.1437 249.348 87.0202 246.022 87.0202C244.504 87.0202 243.12 86.4133 242.07 85.4246V86.2112C242.07 86.4584 241.869 86.6605 241.624 86.6605H239.414C239.168 86.6605 238.967 86.4584 238.967 86.2112V69.9869C238.967 69.7397 239.168 69.5376 239.414 69.5376H241.624C241.869 69.5376 242.07 69.7397 242.07 69.9869V75.6948C243.142 74.7058 244.504 74.0992 246.022 74.0992ZM245.509 83.964C247.384 83.964 248.902 82.4359 248.924 80.526C248.924 78.6158 247.384 77.088 245.509 77.088C243.611 77.088 242.093 78.6385 242.093 80.526C242.093 82.4359 243.633 83.964 245.509 83.964ZM270.892 85.9188C271.138 86.2111 270.937 86.6607 270.558 86.6607H267.945C267.811 86.6607 267.7 86.6156 267.61 86.5033L263.324 81.3124V86.2111C263.324 86.4583 263.123 86.6607 262.877 86.6607H260.667C260.422 86.6607 260.221 86.4583 260.221 86.2111V69.9868C260.221 69.7396 260.422 69.5375 260.667 69.5375H262.877C263.123 69.5375 263.324 69.7396 263.324 69.9868V79.5372L267.432 74.5711C267.499 74.4812 267.633 74.4137 267.767 74.4137H270.356C270.736 74.4137 270.937 74.863 270.691 75.1553L266.338 80.4133L270.892 85.9188ZM255.733 69.1106C256.769 69.1106 257.609 69.9556 257.609 70.9981C257.609 72.0406 256.769 72.8856 255.733 72.8856C254.698 72.8856 253.858 72.0406 253.858 70.9981C253.858 69.9556 254.698 69.1106 255.733 69.1106Z" fill="black"/>
</g>
<defs>
<clipPath id="clip0_115_252">
<rect width="110" height="46.2617" fill="white" transform="translate(161 57)"/>
</clipPath>
</defs>
</svg>
